<svg width="160" height="160" viewBox="0 0 160 160" fill="none" xmlns="http://www.w3.org/2000/svg">
<g clip-path="url(#clip0_60_983)">
<path d="M78.6667 13.3335C77.3333 13.3335 76 14.0002 75.3333 14.6668L66 23.3335L55.3333 21.3335C52 20.6668 50 22.6668 49.3333 25.3335L47.3333 37.3335L36 42.6668C33.3333 44.0002 32.6667 46.6668 34 49.3335L39.3333 60.0002L34 70.6668C32.6667 73.3335 34 76.0002 36 77.3335L47.3333 82.6668L49.3333 94.6668C50 97.3335 52.6667 99.3335 55.3333 98.6668L68 96.6668L77.3333 105.333C79.3333 107.333 82.6667 107.333 84.6667 105.333L94 96.6668L106.667 98.6668C109.333 99.3335 112 97.3335 112.667 94.6668L114.667 82.6668L126 77.3335C128.667 76.0002 129.333 73.3335 128 70.6668L120.667 60.0002L126 49.3335C127.333 46.6668 126.667 44.0002 124 42.6668L112.667 37.3335L110.667 25.3335C110 22.6668 107.333 20.6668 104.667 21.3335L92 23.3335L82.6667 14.6668C82 13.3335 80 13.3335 78.6667 13.3335ZM40.6667 87.3335L20 128.667L44 125.333L56 146.667L73.3333 111.333L72 110L65.3333 104L56 105.333C50 106 44 102 42.6667 96.0002L40.6667 87.3335ZM119.333 87.3335L117.333 96.0002C116 101.333 111.333 105.333 106 105.333H104.667L95.3333 104L88.6667 110L87.3333 111.333L104.667 146.667L116.667 126L140.667 129.333L119.333 87.3335Z" fill="#E61A1A"/>
</g>
<defs>
<clipPath id="clip0_60_983">
<rect width="160" height="160" fill="white"/>
</clipPath>
</defs>
</svg>
