<svg width="85" height="28" viewBox="0 0 85 28" fill="none" xmlns="http://www.w3.org/2000/svg">
<path d="M54.416 21.7235V27.2401H84.6466V0.540039H57.9466V21.7235H54.416Z" fill="#FE0000"/>
<path d="M76.1502 19.2964L76.2606 21.9443L76.7019 21.834L77.1432 21.503H77.5845L77.8052 21.834H78.4672L78.6879 21.503H79.3498V20.3997L79.2395 19.2964L79.1292 18.1931V13.3385L79.0188 11.5733L78.9085 11.1319L78.7982 9.80797V9.14598L78.6879 7.16003L78.3569 6.93937L78.2465 7.82202H78.0259V6.71871L77.8052 6.49805H77.4742L77.1432 6.93937H75.3779L75.4883 7.60135L75.5986 10.0286L75.7089 11.7939L75.8193 13.3385L75.9296 15.1038L76.0399 16.6485V18.6344L76.1502 19.2964Z" fill="white"/>
<path d="M62.5811 20.5103V23.9305H63.0224L63.574 23.4892L63.905 23.9305H64.567L65.1187 23.4892L65.4497 23.7098V20.8412L69.4216 19.7379H70.0835L72.5108 22.1652L72.7315 20.8412H73.3935V20.6206H73.6141V19.9586H73.8348V19.5173L72.2902 17.9726V16.8693L71.8488 15.9867H70.9662L69.6422 12.6768L67.7666 7.60156L67.8769 8.92553L67.1046 7.60156L66.7736 8.26355H65.891L65.56 7.60156L65.229 8.04289H63.4637V11.5735L63.243 15.104L62.5811 20.5103Z" fill="white"/>
<path d="M66.7742 17.3105C66.7742 17.3105 66.4002 17.5283 65.8916 17.5311H65.6709V17.3105L65.8916 16.8692L66.0019 15.7659V13.3386H66.1122V11.7939H66.5535V12.6766H66.7742V13.3386L67.2155 14.8832L68.0982 16.6485V16.8692L67.8775 17.0898L66.7742 17.3105Z" fill="#FE0000"/>
<path d="M35.6592 11.5732L36.1005 27.2401H40.7344V22.3856L42.941 20.7306L46.9129 27.2401H52.2088L46.5819 17.9723L53.7534 11.1318H48.8989L41.1757 17.9723H40.7344V11.5732H35.6592Z" fill="#FE0000"/>
<path d="M19.7723 27.4607V23.9301L30.1434 23.7094V21.5028L19.5517 21.7235L19.1104 11.5731L33.674 10.6904L34.1153 14.883L23.7442 15.545V17.7516L34.1153 17.3103L34.5566 27.24L19.7723 27.4607Z" fill="#FE0000"/>
<path d="M0.794838 11.3525L0.353516 27.2402H5.64939L5.87005 16.6484L13.3725 27.2402H18.0064L18.2271 11.3525H13.8139V19.9583L7.41468 11.3525H0.794838Z" fill="#FE0000"/>
</svg>
