<svg width="138" height="329" viewBox="0 0 138 329" fill="none" xmlns="http://www.w3.org/2000/svg">
<path d="M99.9933 -0.00037443L117.761 227.737L63.1561 237.209L0.405106 25.6182L99.9933 -0.00037443ZM107.065 328.207C97.2177 329.915 88.1579 327.891 79.8852 322.136C71.5952 316.28 66.6437 308.408 65.0306 298.518C63.236 288.762 65.2642 279.781 71.1152 271.576C76.9663 263.37 84.8152 258.414 94.6621 256.706C104.111 255.067 113.022 257.116 121.394 262.855C129.766 268.593 134.849 276.34 136.644 286.096C137.686 292.695 136.992 299.03 134.562 305.102C132.214 311.056 128.639 316.144 123.839 320.367C119.022 324.49 113.43 327.103 107.065 328.207Z" fill="#FE0000"/>
</svg>
