<svg width="234" height="52" viewBox="0 0 234 52" fill="none" xmlns="http://www.w3.org/2000/svg">
<rect x="1" y="1" width="232" height="50" stroke="#FE0000" stroke-width="2"/>
<path d="M38.747 19.9091H40.7157V29.1903C40.7157 30.0298 40.5495 30.7479 40.2172 31.3445C39.889 31.9411 39.4267 32.397 38.8301 32.7124C38.2335 33.0234 37.5346 33.179 36.7335 33.179C35.9963 33.179 35.3336 33.0447 34.7456 32.7763C34.1618 32.5078 33.6994 32.1179 33.3585 31.6065C33.0218 31.0909 32.8535 30.4645 32.8535 29.7273H34.8159C34.8159 30.0895 34.899 30.4027 35.0652 30.6669C35.2356 30.9311 35.4679 31.1378 35.7619 31.2869C36.0602 31.4318 36.4011 31.5043 36.7846 31.5043C37.2022 31.5043 37.5559 31.4169 37.8457 31.2422C38.1397 31.0632 38.3635 30.8011 38.5169 30.456C38.6703 30.1108 38.747 29.6889 38.747 29.1903V19.9091ZM47.5728 33.1982C46.6523 33.1982 45.8491 32.9872 45.163 32.5653C44.4769 32.1435 43.9442 31.5533 43.565 30.7947C43.1857 30.0362 42.9961 29.1499 42.9961 28.1357C42.9961 27.1172 43.1857 26.2266 43.565 25.4638C43.9442 24.701 44.4769 24.1087 45.163 23.6868C45.8491 23.2649 46.6523 23.054 47.5728 23.054C48.4933 23.054 49.2965 23.2649 49.9826 23.6868C50.6687 24.1087 51.2013 24.701 51.5806 25.4638C51.9599 26.2266 52.1495 27.1172 52.1495 28.1357C52.1495 29.1499 51.9599 30.0362 51.5806 30.7947C51.2013 31.5533 50.6687 32.1435 49.9826 32.5653C49.2965 32.9872 48.4933 33.1982 47.5728 33.1982ZM47.5792 31.5938C48.1758 31.5938 48.6701 31.4361 49.0621 31.1207C49.4542 30.8054 49.744 30.3857 49.9315 29.8615C50.1232 29.3374 50.2191 28.7599 50.2191 28.1293C50.2191 27.5028 50.1232 26.9276 49.9315 26.4034C49.744 25.875 49.4542 25.451 49.0621 25.1314C48.6701 24.8118 48.1758 24.652 47.5792 24.652C46.9783 24.652 46.4798 24.8118 46.0835 25.1314C45.6914 25.451 45.3995 25.875 45.2077 26.4034C45.0202 26.9276 44.9265 27.5028 44.9265 28.1293C44.9265 28.7599 45.0202 29.3374 45.2077 29.8615C45.3995 30.3857 45.6914 30.8054 46.0835 31.1207C46.4798 31.4361 46.9783 31.5938 47.5792 31.5938ZM54.2828 33V23.1818H56.1941V33H54.2828ZM55.248 21.6669C54.9157 21.6669 54.6301 21.5561 54.3915 21.3345C54.1571 21.1087 54.04 20.8402 54.04 20.5291C54.04 20.2138 54.1571 19.9453 54.3915 19.7237C54.6301 19.4979 54.9157 19.3849 55.248 19.3849C55.5804 19.3849 55.8638 19.4979 56.0982 19.7237C56.3368 19.9453 56.4561 20.2138 56.4561 20.5291C56.4561 20.8402 56.3368 21.1087 56.0982 21.3345C55.8638 21.5561 55.5804 21.6669 55.248 21.6669ZM60.6765 27.1705V33H58.7653V23.1818H60.5998V24.7798H60.7212C60.9471 24.2599 61.3008 23.8423 61.7823 23.527C62.2681 23.2116 62.8796 23.054 63.6168 23.054C64.2859 23.054 64.8718 23.1946 65.3746 23.4759C65.8775 23.7528 66.2674 24.1662 66.5444 24.7159C66.8214 25.2656 66.9599 25.9453 66.9599 26.755V33H65.0487V26.9851C65.0487 26.2734 64.8633 25.7173 64.4925 25.3168C64.1218 24.9119 63.6126 24.7095 62.9648 24.7095C62.5217 24.7095 62.1275 24.8054 61.7823 24.9972C61.4414 25.1889 61.1708 25.4702 60.9705 25.8409C60.7745 26.2074 60.6765 26.6506 60.6765 27.1705ZM78.8699 23.1818V24.7159H73.5069V23.1818H78.8699ZM74.9451 20.8295H76.8564V30.1172C76.8564 30.4879 76.9118 30.767 77.0225 30.9545C77.1333 31.1378 77.2761 31.2635 77.4508 31.3317C77.6298 31.3956 77.8237 31.4276 78.0325 31.4276C78.1859 31.4276 78.3201 31.4169 78.4352 31.3956C78.5502 31.3743 78.6397 31.3572 78.7037 31.3445L79.0488 32.9233C78.938 32.9659 78.7804 33.0085 78.5758 33.0511C78.3713 33.098 78.1156 33.1236 77.8088 33.1278C77.3059 33.1364 76.8372 33.0469 76.4025 32.8594C75.9679 32.6719 75.6163 32.3821 75.3478 31.9901C75.0794 31.598 74.9451 31.1058 74.9451 30.5135V20.8295ZM83.1062 27.1705V33H81.195V19.9091H83.0806V24.7798H83.2021C83.4322 24.2514 83.7837 23.8317 84.2567 23.5206C84.7298 23.2095 85.3477 23.054 86.1104 23.054C86.7837 23.054 87.3718 23.1925 87.8746 23.4695C88.3817 23.7464 88.7738 24.1598 89.0508 24.7095C89.332 25.255 89.4727 25.9368 89.4727 26.755V33H87.5614V26.9851C87.5614 26.2649 87.3761 25.7067 87.0053 25.3104C86.6346 24.9098 86.119 24.7095 85.4585 24.7095C85.0067 24.7095 84.6019 24.8054 84.244 24.9972C83.8903 25.1889 83.6112 25.4702 83.4066 25.8409C83.2063 26.2074 83.1062 26.6506 83.1062 27.1705ZM96.2546 33.1982C95.2873 33.1982 94.4542 32.9915 93.7553 32.5781C93.0607 32.1605 92.5238 31.5746 92.1445 30.8203C91.7695 30.0618 91.582 29.1733 91.582 28.1548C91.582 27.1491 91.7695 26.2628 92.1445 25.4957C92.5238 24.7287 93.0522 24.13 93.7298 23.6996C94.4116 23.2692 95.2085 23.054 96.1204 23.054C96.6744 23.054 97.2113 23.1456 97.7312 23.3288C98.2511 23.5121 98.7177 23.7997 99.131 24.1918C99.5444 24.5838 99.8704 25.093 100.109 25.7195C100.348 26.3416 100.467 27.098 100.467 27.9886V28.6662H92.6623V27.2344H98.5941C98.5941 26.7315 98.4918 26.2862 98.2873 25.8984C98.0827 25.5064 97.7951 25.1974 97.4244 24.9716C97.0579 24.7457 96.6275 24.6328 96.1332 24.6328C95.5962 24.6328 95.1275 24.7649 94.7269 25.0291C94.3306 25.2891 94.0238 25.63 93.8065 26.0518C93.5934 26.4695 93.4869 26.9233 93.4869 27.4134V28.532C93.4869 29.1882 93.6019 29.7464 93.832 30.2067C94.0664 30.6669 94.3924 31.0185 94.81 31.2614C95.2276 31.5 95.7156 31.6193 96.2738 31.6193C96.636 31.6193 96.9663 31.5682 97.2646 31.4659C97.5629 31.3594 97.8207 31.2017 98.038 30.9929C98.2553 30.7841 98.4215 30.5263 98.5366 30.2195L100.346 30.5455C100.201 31.0781 99.9407 31.5447 99.5657 31.9453C99.195 32.3416 98.7283 32.6506 98.1658 32.8722C97.6076 33.0895 96.9705 33.1982 96.2546 33.1982ZM111.487 33.1982C110.537 33.1982 109.718 32.983 109.032 32.5526C108.35 32.1179 107.826 31.5192 107.46 30.7564C107.093 29.9936 106.91 29.12 106.91 28.1357C106.91 27.1385 107.098 26.2585 107.473 25.4957C107.848 24.7287 108.376 24.13 109.058 23.6996C109.74 23.2692 110.543 23.054 111.468 23.054C112.213 23.054 112.878 23.1925 113.462 23.4695C114.046 23.7422 114.517 24.1257 114.875 24.62C115.237 25.1143 115.452 25.6918 115.52 26.3523H113.66C113.558 25.892 113.324 25.4957 112.957 25.1634C112.595 24.831 112.109 24.6648 111.5 24.6648C110.967 24.6648 110.5 24.8054 110.1 25.0866C109.703 25.3636 109.395 25.7599 109.173 26.2756C108.951 26.7869 108.841 27.392 108.841 28.0909C108.841 28.8068 108.949 29.4247 109.167 29.9446C109.384 30.4645 109.691 30.8672 110.087 31.1527C110.488 31.4382 110.958 31.581 111.5 31.581C111.862 31.581 112.19 31.5149 112.484 31.3828C112.782 31.2464 113.032 31.0526 113.232 30.8011C113.436 30.5497 113.579 30.2472 113.66 29.8935H115.52C115.452 30.5284 115.245 31.0952 114.9 31.5938C114.555 32.0923 114.093 32.4844 113.513 32.7699C112.938 33.0554 112.262 33.1982 111.487 33.1982ZM121.7 33.1982C120.779 33.1982 119.976 32.9872 119.29 32.5653C118.604 32.1435 118.071 31.5533 117.692 30.7947C117.313 30.0362 117.123 29.1499 117.123 28.1357C117.123 27.1172 117.313 26.2266 117.692 25.4638C118.071 24.701 118.604 24.1087 119.29 23.6868C119.976 23.2649 120.779 23.054 121.7 23.054C122.62 23.054 123.423 23.2649 124.11 23.6868C124.796 24.1087 125.328 24.701 125.708 25.4638C126.087 26.2266 126.276 27.1172 126.276 28.1357C126.276 29.1499 126.087 30.0362 125.708 30.7947C125.328 31.5533 124.796 32.1435 124.11 32.5653C123.423 32.9872 122.62 33.1982 121.7 33.1982ZM121.706 31.5938C122.303 31.5938 122.797 31.4361 123.189 31.1207C123.581 30.8054 123.871 30.3857 124.058 29.8615C124.25 29.3374 124.346 28.7599 124.346 28.1293C124.346 27.5028 124.25 26.9276 124.058 26.4034C123.871 25.875 123.581 25.451 123.189 25.1314C122.797 24.8118 122.303 24.652 121.706 24.652C121.105 24.652 120.607 24.8118 120.21 25.1314C119.818 25.451 119.526 25.875 119.335 26.4034C119.147 26.9276 119.053 27.5028 119.053 28.1293C119.053 28.7599 119.147 29.3374 119.335 29.8615C119.526 30.3857 119.818 30.8054 120.21 31.1207C120.607 31.4361 121.105 31.5938 121.706 31.5938ZM128.41 33V23.1818H130.244V24.7798H130.366C130.57 24.2386 130.905 23.8168 131.369 23.5142C131.834 23.2074 132.39 23.054 133.038 23.054C133.694 23.054 134.244 23.2074 134.687 23.5142C135.134 23.821 135.464 24.2429 135.678 24.7798H135.78C136.014 24.2557 136.387 23.8381 136.898 23.527C137.41 23.2116 138.019 23.054 138.727 23.054C139.617 23.054 140.344 23.3331 140.906 23.8913C141.473 24.4496 141.756 25.2912 141.756 26.4162V33H139.845V26.5952C139.845 25.9304 139.664 25.4489 139.302 25.1506C138.94 24.8523 138.507 24.7031 138.004 24.7031C137.382 24.7031 136.898 24.8949 136.553 25.2784C136.208 25.6577 136.036 26.1456 136.036 26.7422V33H134.131V26.4737C134.131 25.9411 133.964 25.5128 133.632 25.1889C133.3 24.8651 132.867 24.7031 132.335 24.7031C131.972 24.7031 131.638 24.799 131.331 24.9908C131.028 25.1783 130.783 25.4403 130.596 25.777C130.413 26.1136 130.321 26.5036 130.321 26.9467V33H128.41ZM144.318 33V23.1818H146.153V24.7798H146.274C146.479 24.2386 146.813 23.8168 147.278 23.5142C147.742 23.2074 148.298 23.054 148.946 23.054C149.602 23.054 150.152 23.2074 150.595 23.5142C151.042 23.821 151.373 24.2429 151.586 24.7798H151.688C151.922 24.2557 152.295 23.8381 152.807 23.527C153.318 23.2116 153.927 23.054 154.635 23.054C155.525 23.054 156.252 23.3331 156.814 23.8913C157.381 24.4496 157.665 25.2912 157.665 26.4162V33H155.753V26.5952C155.753 25.9304 155.572 25.4489 155.21 25.1506C154.848 24.8523 154.415 24.7031 153.912 24.7031C153.29 24.7031 152.807 24.8949 152.461 25.2784C152.116 25.6577 151.944 26.1456 151.944 26.7422V33H150.039V26.4737C150.039 25.9411 149.873 25.5128 149.54 25.1889C149.208 24.8651 148.775 24.7031 148.243 24.7031C147.881 24.7031 147.546 24.799 147.239 24.9908C146.937 25.1783 146.692 25.4403 146.504 25.777C146.321 26.1136 146.229 26.5036 146.229 26.9467V33H144.318ZM166.446 28.9283V23.1818H168.363V33H166.484V31.2997H166.382C166.156 31.8239 165.794 32.2607 165.295 32.6101C164.801 32.9553 164.185 33.1278 163.448 33.1278C162.817 33.1278 162.259 32.9893 161.773 32.7124C161.292 32.4311 160.912 32.0156 160.635 31.4659C160.363 30.9162 160.226 30.2365 160.226 29.4268V23.1818H162.137V29.1967C162.137 29.8658 162.323 30.3984 162.694 30.7947C163.064 31.1911 163.546 31.3892 164.138 31.3892C164.496 31.3892 164.852 31.2997 165.206 31.1207C165.564 30.9418 165.86 30.6712 166.094 30.3089C166.333 29.9467 166.45 29.4865 166.446 28.9283ZM172.843 27.1705V33H170.931V23.1818H172.766V24.7798H172.887C173.113 24.2599 173.467 23.8423 173.948 23.527C174.434 23.2116 175.046 23.054 175.783 23.054C176.452 23.054 177.038 23.1946 177.541 23.4759C178.044 23.7528 178.433 24.1662 178.71 24.7159C178.987 25.2656 179.126 25.9453 179.126 26.755V33H177.215V26.9851C177.215 26.2734 177.029 25.7173 176.659 25.3168C176.288 24.9119 175.779 24.7095 175.131 24.7095C174.688 24.7095 174.294 24.8054 173.948 24.9972C173.607 25.1889 173.337 25.4702 173.137 25.8409C172.941 26.2074 172.843 26.6506 172.843 27.1705ZM181.689 33V23.1818H183.6V33H181.689ZM182.654 21.6669C182.322 21.6669 182.036 21.5561 181.798 21.3345C181.563 21.1087 181.446 20.8402 181.446 20.5291C181.446 20.2138 181.563 19.9453 181.798 19.7237C182.036 19.4979 182.322 19.3849 182.654 19.3849C182.987 19.3849 183.27 19.4979 183.504 19.7237C183.743 19.9453 183.862 20.2138 183.862 20.5291C183.862 20.8402 183.743 21.1087 183.504 21.3345C183.27 21.5561 182.987 21.6669 182.654 21.6669ZM190.755 23.1818V24.7159H185.392V23.1818H190.755ZM186.83 20.8295H188.741V30.1172C188.741 30.4879 188.797 30.767 188.907 30.9545C189.018 31.1378 189.161 31.2635 189.336 31.3317C189.515 31.3956 189.708 31.4276 189.917 31.4276C190.071 31.4276 190.205 31.4169 190.32 31.3956C190.435 31.3743 190.525 31.3572 190.588 31.3445L190.934 32.9233C190.823 32.9659 190.665 33.0085 190.461 33.0511C190.256 33.098 190 33.1236 189.694 33.1278C189.191 33.1364 188.722 33.0469 188.287 32.8594C187.853 32.6719 187.501 32.3821 187.233 31.9901C186.964 31.598 186.83 31.1058 186.83 30.5135V20.8295ZM194.077 36.6818C193.791 36.6818 193.531 36.6584 193.297 36.6115C193.063 36.5689 192.888 36.522 192.773 36.4709L193.233 34.9048C193.583 34.9986 193.894 35.0391 194.166 35.0263C194.439 35.0135 194.68 34.9112 194.889 34.7195C195.102 34.5277 195.289 34.2145 195.451 33.7798L195.688 33.1278L192.095 23.1818H194.141L196.627 30.8011H196.73L199.216 23.1818H201.268L197.222 34.3104C197.034 34.8217 196.796 35.2543 196.506 35.608C196.216 35.9659 195.871 36.2344 195.47 36.4134C195.07 36.5923 194.605 36.6818 194.077 36.6818Z" fill="#FE0000"/>
</svg>
