<svg width="288" height="70" viewBox="0 0 288 70" fill="none" xmlns="http://www.w3.org/2000/svg">
<rect x="1" y="1" width="286" height="68" rx="8" stroke="#220D0D" stroke-opacity="0.25"/>
<rect x="9" y="9" width="270" height="52" rx="6" fill="#FE0000"/>
<path d="M47.747 28.9091H49.7157V38.1903C49.7157 39.0298 49.5495 39.7479 49.2172 40.3445C48.889 40.9411 48.4267 41.397 47.8301 41.7124C47.2335 42.0234 46.5346 42.179 45.7335 42.179C44.9963 42.179 44.3336 42.0447 43.7456 41.7763C43.1618 41.5078 42.6994 41.1179 42.3585 40.6065C42.0218 40.0909 41.8535 39.4645 41.8535 38.7273H43.8159C43.8159 39.0895 43.899 39.4027 44.0652 39.6669C44.2356 39.9311 44.4679 40.1378 44.7619 40.2869C45.0602 40.4318 45.4011 40.5043 45.7846 40.5043C46.2022 40.5043 46.5559 40.4169 46.8457 40.2422C47.1397 40.0632 47.3635 39.8011 47.5169 39.456C47.6703 39.1108 47.747 38.6889 47.747 38.1903V28.9091ZM56.5728 42.1982C55.6523 42.1982 54.8491 41.9872 54.163 41.5653C53.4769 41.1435 52.9442 40.5533 52.565 39.7947C52.1857 39.0362 51.9961 38.1499 51.9961 37.1357C51.9961 36.1172 52.1857 35.2266 52.565 34.4638C52.9442 33.701 53.4769 33.1087 54.163 32.6868C54.8491 32.2649 55.6523 32.054 56.5728 32.054C57.4933 32.054 58.2965 32.2649 58.9826 32.6868C59.6687 33.1087 60.2013 33.701 60.5806 34.4638C60.9599 35.2266 61.1495 36.1172 61.1495 37.1357C61.1495 38.1499 60.9599 39.0362 60.5806 39.7947C60.2013 40.5533 59.6687 41.1435 58.9826 41.5653C58.2965 41.9872 57.4933 42.1982 56.5728 42.1982ZM56.5792 40.5938C57.1758 40.5938 57.6701 40.4361 58.0621 40.1207C58.4542 39.8054 58.744 39.3857 58.9315 38.8615C59.1232 38.3374 59.2191 37.7599 59.2191 37.1293C59.2191 36.5028 59.1232 35.9276 58.9315 35.4034C58.744 34.875 58.4542 34.451 58.0621 34.1314C57.6701 33.8118 57.1758 33.652 56.5792 33.652C55.9783 33.652 55.4798 33.8118 55.0835 34.1314C54.6914 34.451 54.3995 34.875 54.2077 35.4034C54.0202 35.9276 53.9265 36.5028 53.9265 37.1293C53.9265 37.7599 54.0202 38.3374 54.2077 38.8615C54.3995 39.3857 54.6914 39.8054 55.0835 40.1207C55.4798 40.4361 55.9783 40.5938 56.5792 40.5938ZM63.2828 42V32.1818H65.1941V42H63.2828ZM64.248 30.6669C63.9157 30.6669 63.6301 30.5561 63.3915 30.3345C63.1571 30.1087 63.04 29.8402 63.04 29.5291C63.04 29.2138 63.1571 28.9453 63.3915 28.7237C63.6301 28.4979 63.9157 28.3849 64.248 28.3849C64.5804 28.3849 64.8638 28.4979 65.0982 28.7237C65.3368 28.9453 65.4561 29.2138 65.4561 29.5291C65.4561 29.8402 65.3368 30.1087 65.0982 30.3345C64.8638 30.5561 64.5804 30.6669 64.248 30.6669ZM69.6765 36.1705V42H67.7653V32.1818H69.5998V33.7798H69.7212C69.9471 33.2599 70.3008 32.8423 70.7823 32.527C71.2681 32.2116 71.8796 32.054 72.6168 32.054C73.2859 32.054 73.8718 32.1946 74.3746 32.4759C74.8775 32.7528 75.2674 33.1662 75.5444 33.7159C75.8214 34.2656 75.9599 34.9453 75.9599 35.755V42H74.0487V35.9851C74.0487 35.2734 73.8633 34.7173 73.4925 34.3168C73.1218 33.9119 72.6126 33.7095 71.9648 33.7095C71.5217 33.7095 71.1275 33.8054 70.7823 33.9972C70.4414 34.1889 70.1708 34.4702 69.9705 34.8409C69.7745 35.2074 69.6765 35.6506 69.6765 36.1705ZM87.8699 32.1818V33.7159H82.5069V32.1818H87.8699ZM83.9451 29.8295H85.8564V39.1172C85.8564 39.4879 85.9118 39.767 86.0225 39.9545C86.1333 40.1378 86.2761 40.2635 86.4508 40.3317C86.6298 40.3956 86.8237 40.4276 87.0325 40.4276C87.1859 40.4276 87.3201 40.4169 87.4352 40.3956C87.5502 40.3743 87.6397 40.3572 87.7037 40.3445L88.0488 41.9233C87.938 41.9659 87.7804 42.0085 87.5758 42.0511C87.3713 42.098 87.1156 42.1236 86.8088 42.1278C86.3059 42.1364 85.8372 42.0469 85.4025 41.8594C84.9679 41.6719 84.6163 41.3821 84.3478 40.9901C84.0794 40.598 83.9451 40.1058 83.9451 39.5135V29.8295ZM92.1062 36.1705V42H90.195V28.9091H92.0806V33.7798H92.2021C92.4322 33.2514 92.7837 32.8317 93.2567 32.5206C93.7298 32.2095 94.3477 32.054 95.1104 32.054C95.7837 32.054 96.3718 32.1925 96.8746 32.4695C97.3817 32.7464 97.7738 33.1598 98.0508 33.7095C98.332 34.255 98.4727 34.9368 98.4727 35.755V42H96.5614V35.9851C96.5614 35.2649 96.3761 34.7067 96.0053 34.3104C95.6346 33.9098 95.119 33.7095 94.4585 33.7095C94.0067 33.7095 93.6019 33.8054 93.244 33.9972C92.8903 34.1889 92.6112 34.4702 92.4066 34.8409C92.2063 35.2074 92.1062 35.6506 92.1062 36.1705ZM105.255 42.1982C104.287 42.1982 103.454 41.9915 102.755 41.5781C102.061 41.1605 101.524 40.5746 101.145 39.8203C100.77 39.0618 100.582 38.1733 100.582 37.1548C100.582 36.1491 100.77 35.2628 101.145 34.4957C101.524 33.7287 102.052 33.13 102.73 32.6996C103.412 32.2692 104.208 32.054 105.12 32.054C105.674 32.054 106.211 32.1456 106.731 32.3288C107.251 32.5121 107.718 32.7997 108.131 33.1918C108.544 33.5838 108.87 34.093 109.109 34.7195C109.348 35.3416 109.467 36.098 109.467 36.9886V37.6662H101.662V36.2344H107.594C107.594 35.7315 107.492 35.2862 107.287 34.8984C107.083 34.5064 106.795 34.1974 106.424 33.9716C106.058 33.7457 105.627 33.6328 105.133 33.6328C104.596 33.6328 104.127 33.7649 103.727 34.0291C103.331 34.2891 103.024 34.63 102.806 35.0518C102.593 35.4695 102.487 35.9233 102.487 36.4134V37.532C102.487 38.1882 102.602 38.7464 102.832 39.2067C103.066 39.6669 103.392 40.0185 103.81 40.2614C104.228 40.5 104.716 40.6193 105.274 40.6193C105.636 40.6193 105.966 40.5682 106.265 40.4659C106.563 40.3594 106.821 40.2017 107.038 39.9929C107.255 39.7841 107.422 39.5263 107.537 39.2195L109.346 39.5455C109.201 40.0781 108.941 40.5447 108.566 40.9453C108.195 41.3416 107.728 41.6506 107.166 41.8722C106.608 42.0895 105.971 42.1982 105.255 42.1982ZM120.487 42.1982C119.537 42.1982 118.718 41.983 118.032 41.5526C117.35 41.1179 116.826 40.5192 116.46 39.7564C116.093 38.9936 115.91 38.12 115.91 37.1357C115.91 36.1385 116.098 35.2585 116.473 34.4957C116.848 33.7287 117.376 33.13 118.058 32.6996C118.74 32.2692 119.543 32.054 120.468 32.054C121.213 32.054 121.878 32.1925 122.462 32.4695C123.046 32.7422 123.517 33.1257 123.875 33.62C124.237 34.1143 124.452 34.6918 124.52 35.3523H122.66C122.558 34.892 122.324 34.4957 121.957 34.1634C121.595 33.831 121.109 33.6648 120.5 33.6648C119.967 33.6648 119.5 33.8054 119.1 34.0866C118.703 34.3636 118.395 34.7599 118.173 35.2756C117.951 35.7869 117.841 36.392 117.841 37.0909C117.841 37.8068 117.949 38.4247 118.167 38.9446C118.384 39.4645 118.691 39.8672 119.087 40.1527C119.488 40.4382 119.958 40.581 120.5 40.581C120.862 40.581 121.19 40.5149 121.484 40.3828C121.782 40.2464 122.032 40.0526 122.232 39.8011C122.436 39.5497 122.579 39.2472 122.66 38.8935H124.52C124.452 39.5284 124.245 40.0952 123.9 40.5938C123.555 41.0923 123.093 41.4844 122.513 41.7699C121.938 42.0554 121.262 42.1982 120.487 42.1982ZM130.7 42.1982C129.779 42.1982 128.976 41.9872 128.29 41.5653C127.604 41.1435 127.071 40.5533 126.692 39.7947C126.313 39.0362 126.123 38.1499 126.123 37.1357C126.123 36.1172 126.313 35.2266 126.692 34.4638C127.071 33.701 127.604 33.1087 128.29 32.6868C128.976 32.2649 129.779 32.054 130.7 32.054C131.62 32.054 132.423 32.2649 133.11 32.6868C133.796 33.1087 134.328 33.701 134.708 34.4638C135.087 35.2266 135.276 36.1172 135.276 37.1357C135.276 38.1499 135.087 39.0362 134.708 39.7947C134.328 40.5533 133.796 41.1435 133.11 41.5653C132.423 41.9872 131.62 42.1982 130.7 42.1982ZM130.706 40.5938C131.303 40.5938 131.797 40.4361 132.189 40.1207C132.581 39.8054 132.871 39.3857 133.058 38.8615C133.25 38.3374 133.346 37.7599 133.346 37.1293C133.346 36.5028 133.25 35.9276 133.058 35.4034C132.871 34.875 132.581 34.451 132.189 34.1314C131.797 33.8118 131.303 33.652 130.706 33.652C130.105 33.652 129.607 33.8118 129.21 34.1314C128.818 34.451 128.526 34.875 128.335 35.4034C128.147 35.9276 128.053 36.5028 128.053 37.1293C128.053 37.7599 128.147 38.3374 128.335 38.8615C128.526 39.3857 128.818 39.8054 129.21 40.1207C129.607 40.4361 130.105 40.5938 130.706 40.5938ZM137.41 42V32.1818H139.244V33.7798H139.366C139.57 33.2386 139.905 32.8168 140.369 32.5142C140.834 32.2074 141.39 32.054 142.038 32.054C142.694 32.054 143.244 32.2074 143.687 32.5142C144.134 32.821 144.464 33.2429 144.678 33.7798H144.78C145.014 33.2557 145.387 32.8381 145.898 32.527C146.41 32.2116 147.019 32.054 147.727 32.054C148.617 32.054 149.344 32.3331 149.906 32.8913C150.473 33.4496 150.756 34.2912 150.756 35.4162V42H148.845V35.5952C148.845 34.9304 148.664 34.4489 148.302 34.1506C147.94 33.8523 147.507 33.7031 147.004 33.7031C146.382 33.7031 145.898 33.8949 145.553 34.2784C145.208 34.6577 145.036 35.1456 145.036 35.7422V42H143.131V35.4737C143.131 34.9411 142.964 34.5128 142.632 34.1889C142.3 33.8651 141.867 33.7031 141.335 33.7031C140.972 33.7031 140.638 33.799 140.331 33.9908C140.028 34.1783 139.783 34.4403 139.596 34.777C139.413 35.1136 139.321 35.5036 139.321 35.9467V42H137.41ZM153.318 42V32.1818H155.153V33.7798H155.274C155.479 33.2386 155.813 32.8168 156.278 32.5142C156.742 32.2074 157.298 32.054 157.946 32.054C158.602 32.054 159.152 32.2074 159.595 32.5142C160.042 32.821 160.373 33.2429 160.586 33.7798H160.688C160.922 33.2557 161.295 32.8381 161.807 32.527C162.318 32.2116 162.927 32.054 163.635 32.054C164.525 32.054 165.252 32.3331 165.814 32.8913C166.381 33.4496 166.665 34.2912 166.665 35.4162V42H164.753V35.5952C164.753 34.9304 164.572 34.4489 164.21 34.1506C163.848 33.8523 163.415 33.7031 162.912 33.7031C162.29 33.7031 161.807 33.8949 161.461 34.2784C161.116 34.6577 160.944 35.1456 160.944 35.7422V42H159.039V35.4737C159.039 34.9411 158.873 34.5128 158.54 34.1889C158.208 33.8651 157.775 33.7031 157.243 33.7031C156.881 33.7031 156.546 33.799 156.239 33.9908C155.937 34.1783 155.692 34.4403 155.504 34.777C155.321 35.1136 155.229 35.5036 155.229 35.9467V42H153.318ZM175.446 37.9283V32.1818H177.363V42H175.484V40.2997H175.382C175.156 40.8239 174.794 41.2607 174.295 41.6101C173.801 41.9553 173.185 42.1278 172.448 42.1278C171.817 42.1278 171.259 41.9893 170.773 41.7124C170.292 41.4311 169.912 41.0156 169.635 40.4659C169.363 39.9162 169.226 39.2365 169.226 38.4268V32.1818H171.137V38.1967C171.137 38.8658 171.323 39.3984 171.694 39.7947C172.064 40.1911 172.546 40.3892 173.138 40.3892C173.496 40.3892 173.852 40.2997 174.206 40.1207C174.564 39.9418 174.86 39.6712 175.094 39.3089C175.333 38.9467 175.45 38.4865 175.446 37.9283ZM181.843 36.1705V42H179.931V32.1818H181.766V33.7798H181.887C182.113 33.2599 182.467 32.8423 182.948 32.527C183.434 32.2116 184.046 32.054 184.783 32.054C185.452 32.054 186.038 32.1946 186.541 32.4759C187.044 32.7528 187.433 33.1662 187.71 33.7159C187.987 34.2656 188.126 34.9453 188.126 35.755V42H186.215V35.9851C186.215 35.2734 186.029 34.7173 185.659 34.3168C185.288 33.9119 184.779 33.7095 184.131 33.7095C183.688 33.7095 183.294 33.8054 182.948 33.9972C182.607 34.1889 182.337 34.4702 182.137 34.8409C181.941 35.2074 181.843 35.6506 181.843 36.1705ZM190.689 42V32.1818H192.6V42H190.689ZM191.654 30.6669C191.322 30.6669 191.036 30.5561 190.798 30.3345C190.563 30.1087 190.446 29.8402 190.446 29.5291C190.446 29.2138 190.563 28.9453 190.798 28.7237C191.036 28.4979 191.322 28.3849 191.654 28.3849C191.987 28.3849 192.27 28.4979 192.504 28.7237C192.743 28.9453 192.862 29.2138 192.862 29.5291C192.862 29.8402 192.743 30.1087 192.504 30.3345C192.27 30.5561 191.987 30.6669 191.654 30.6669ZM199.755 32.1818V33.7159H194.392V32.1818H199.755ZM195.83 29.8295H197.741V39.1172C197.741 39.4879 197.797 39.767 197.907 39.9545C198.018 40.1378 198.161 40.2635 198.336 40.3317C198.515 40.3956 198.708 40.4276 198.917 40.4276C199.071 40.4276 199.205 40.4169 199.32 40.3956C199.435 40.3743 199.525 40.3572 199.588 40.3445L199.934 41.9233C199.823 41.9659 199.665 42.0085 199.461 42.0511C199.256 42.098 199 42.1236 198.694 42.1278C198.191 42.1364 197.722 42.0469 197.287 41.8594C196.853 41.6719 196.501 41.3821 196.233 40.9901C195.964 40.598 195.83 40.1058 195.83 39.5135V29.8295ZM203.077 45.6818C202.791 45.6818 202.531 45.6584 202.297 45.6115C202.063 45.5689 201.888 45.522 201.773 45.4709L202.233 43.9048C202.583 43.9986 202.894 44.0391 203.166 44.0263C203.439 44.0135 203.68 43.9112 203.889 43.7195C204.102 43.5277 204.289 43.2145 204.451 42.7798L204.688 42.1278L201.095 32.1818H203.141L205.627 39.8011H205.73L208.216 32.1818H210.268L206.222 43.3104C206.034 43.8217 205.796 44.2543 205.506 44.608C205.216 44.9659 204.871 45.2344 204.47 45.4134C204.07 45.5923 203.605 45.6818 203.077 45.6818Z" fill="white"/>
<path d="M238.481 29.8145L243.666 34.9996M243.666 34.9996L238.481 40.1848M243.666 34.9996L230.333 34.9996" stroke="white" stroke-width="1.77778" stroke-linecap="round" stroke-linejoin="round"/>
</svg>
