<svg width="163" height="52" viewBox="0 0 163 52" fill="none" xmlns="http://www.w3.org/2000/svg">
<rect x="1" y="1" width="161" height="50" stroke="#FE0000" stroke-width="2"/>
<path d="M33.5613 33V19.9091H35.5364V31.2997H41.4682V33H33.5613ZM47.7995 33.1982C46.8322 33.1982 45.9991 32.9915 45.3002 32.5781C44.6056 32.1605 44.0687 31.5746 43.6895 30.8203C43.3145 30.0618 43.127 29.1733 43.127 28.1548C43.127 27.1491 43.3145 26.2628 43.6895 25.4957C44.0687 24.7287 44.5971 24.13 45.2747 23.6996C45.9565 23.2692 46.7534 23.054 47.6653 23.054C48.2193 23.054 48.7562 23.1456 49.2761 23.3288C49.796 23.5121 50.2626 23.7997 50.676 24.1918C51.0893 24.5838 51.4153 25.093 51.6539 25.7195C51.8926 26.3416 52.0119 27.098 52.0119 27.9886V28.6662H44.2072V27.2344H50.139C50.139 26.7315 50.0368 26.2862 49.8322 25.8984C49.6277 25.5064 49.34 25.1974 48.9693 24.9716C48.6028 24.7457 48.1724 24.6328 47.6781 24.6328C47.1412 24.6328 46.6724 24.7649 46.2718 25.0291C45.8755 25.2891 45.5687 25.63 45.3514 26.0518C45.1383 26.4695 45.0318 26.9233 45.0318 27.4134V28.532C45.0318 29.1882 45.1468 29.7464 45.377 30.2067C45.6113 30.6669 45.9373 31.0185 46.3549 31.2614C46.7725 31.5 47.2605 31.6193 47.8187 31.6193C48.1809 31.6193 48.5112 31.5682 48.8095 31.4659C49.1078 31.3594 49.3656 31.2017 49.5829 30.9929C49.8002 30.7841 49.9664 30.5263 50.0815 30.2195L51.8904 30.5455C51.7456 31.0781 51.4856 31.5447 51.1106 31.9453C50.7399 32.3416 50.2733 32.6506 49.7108 32.8722C49.1525 33.0895 48.5154 33.1982 47.7995 33.1982ZM57.8079 33.1918C57.0153 33.1918 56.3079 32.9893 55.6857 32.5845C55.0678 32.1754 54.582 31.5937 54.2283 30.8395C53.8789 30.081 53.7042 29.1712 53.7042 28.1101C53.7042 27.049 53.881 26.1413 54.2347 25.3871C54.5927 24.6328 55.0827 24.0554 55.7049 23.6548C56.3271 23.2543 57.0323 23.054 57.8207 23.054C58.43 23.054 58.9201 23.1562 59.2908 23.3608C59.6658 23.5611 59.9556 23.7955 60.1602 24.0639C60.369 24.3324 60.5309 24.5689 60.646 24.7734H60.761V23.1818H62.6722V33H60.8058V31.4723H60.646C60.5309 31.6811 60.3647 31.9197 60.1474 32.1882C59.9343 32.4567 59.6403 32.6911 59.2653 32.8913C58.8903 33.0916 58.4045 33.1918 57.8079 33.1918ZM58.2298 31.5618C58.7795 31.5618 59.244 31.4169 59.6232 31.1271C60.0067 30.8331 60.2965 30.4261 60.4925 29.9062C60.6928 29.3864 60.793 28.7812 60.793 28.0909C60.793 27.4091 60.695 26.8125 60.4989 26.3011C60.3029 25.7898 60.0153 25.3913 59.636 25.1058C59.2567 24.8203 58.788 24.6776 58.2298 24.6776C57.6545 24.6776 57.1751 24.8267 56.7915 25.125C56.408 25.4233 56.1183 25.8303 55.9222 26.3459C55.7305 26.8615 55.6346 27.4432 55.6346 28.0909C55.6346 28.7472 55.7326 29.3374 55.9286 29.8615C56.1246 30.3857 56.4144 30.8011 56.7979 31.108C57.1857 31.4105 57.663 31.5618 58.2298 31.5618ZM65.4 33V23.1818H67.2473V24.7415H67.3496C67.5286 24.2131 67.8439 23.7976 68.2956 23.495C68.7473 23.1882 69.263 23.0348 69.8425 23.0348C70.111 23.0348 70.3517 23.0668 70.5648 23.1307C70.7779 23.1946 70.9654 23.282 71.1273 23.3928L70.5137 24.9908C70.3986 24.9354 70.2686 24.8906 70.1238 24.8565C69.9789 24.8182 69.8127 24.799 69.6252 24.799C69.182 24.799 68.7857 24.8949 68.4363 25.0866C68.0911 25.2741 67.8162 25.5341 67.6117 25.8665C67.4114 26.1989 67.3113 26.5781 67.3113 27.0043V33H65.4ZM74.448 27.1705V33H72.5368V23.1818H74.3713V24.7798H74.4927C74.7186 24.2599 75.0723 23.8423 75.5538 23.527C76.0396 23.2116 76.6511 23.054 77.3883 23.054C78.0574 23.054 78.6433 23.1946 79.1461 23.4759C79.649 23.7528 80.0389 24.1662 80.3159 24.7159C80.5929 25.2656 80.7314 25.9453 80.7314 26.755V33H78.8201V26.9851C78.8201 26.2734 78.6348 25.7173 78.264 25.3168C77.8933 24.9119 77.3841 24.7095 76.7363 24.7095C76.2931 24.7095 75.899 24.8054 75.5538 24.9972C75.2129 25.1889 74.9423 25.4702 74.742 25.8409C74.546 26.2074 74.448 26.6506 74.448 27.1705ZM88.0582 33V23.1818H89.8928V24.7798H90.0142C90.2188 24.2386 90.5533 23.8168 91.0178 23.5142C91.4822 23.2074 92.0384 23.054 92.6861 23.054C93.3423 23.054 93.892 23.2074 94.3352 23.5142C94.7827 23.821 95.1129 24.2429 95.326 24.7798H95.4283C95.6626 24.2557 96.0355 23.8381 96.5469 23.527C97.0582 23.2116 97.6676 23.054 98.375 23.054C99.2656 23.054 99.9922 23.3331 100.555 23.8913C101.121 24.4496 101.405 25.2912 101.405 26.4162V33H99.4936V26.5952C99.4936 25.9304 99.3125 25.4489 98.9503 25.1506C98.5881 24.8523 98.1555 24.7031 97.6527 24.7031C97.0305 24.7031 96.5469 24.8949 96.2017 25.2784C95.8565 25.6577 95.6839 26.1456 95.6839 26.7422V33H93.7791V26.4737C93.7791 25.9411 93.6129 25.5128 93.2805 25.1889C92.9482 24.8651 92.5156 24.7031 91.983 24.7031C91.6207 24.7031 91.2862 24.799 90.9794 24.9908C90.6768 25.1783 90.4318 25.4403 90.2443 25.777C90.0611 26.1136 89.9695 26.5036 89.9695 26.9467V33H88.0582ZM108.102 33.1982C107.182 33.1982 106.378 32.9872 105.692 32.5653C105.006 32.1435 104.474 31.5533 104.094 30.7947C103.715 30.0362 103.525 29.1499 103.525 28.1357C103.525 27.1172 103.715 26.2266 104.094 25.4638C104.474 24.701 105.006 24.1087 105.692 23.6868C106.378 23.2649 107.182 23.054 108.102 23.054C109.023 23.054 109.826 23.2649 110.512 23.6868C111.198 24.1087 111.731 24.701 112.11 25.4638C112.489 26.2266 112.679 27.1172 112.679 28.1357C112.679 29.1499 112.489 30.0362 112.11 30.7947C111.731 31.5533 111.198 32.1435 110.512 32.5653C109.826 32.9872 109.023 33.1982 108.102 33.1982ZM108.108 31.5938C108.705 31.5938 109.199 31.4361 109.591 31.1207C109.983 30.8054 110.273 30.3857 110.461 29.8615C110.653 29.3374 110.748 28.7599 110.748 28.1293C110.748 27.5028 110.653 26.9276 110.461 26.4034C110.273 25.875 109.983 25.451 109.591 25.1314C109.199 24.8118 108.705 24.652 108.108 24.652C107.508 24.652 107.009 24.8118 106.613 25.1314C106.221 25.451 105.929 25.875 105.737 26.4034C105.55 26.9276 105.456 27.5028 105.456 28.1293C105.456 28.7599 105.55 29.3374 105.737 29.8615C105.929 30.3857 106.221 30.8054 106.613 31.1207C107.009 31.4361 107.508 31.5938 108.108 31.5938ZM114.812 33V23.1818H116.659V24.7415H116.762C116.941 24.2131 117.256 23.7976 117.708 23.495C118.159 23.1882 118.675 23.0348 119.255 23.0348C119.523 23.0348 119.764 23.0668 119.977 23.1307C120.19 23.1946 120.377 23.282 120.539 23.3928L119.926 24.9908C119.811 24.9354 119.681 24.8906 119.536 24.8565C119.391 24.8182 119.225 24.799 119.037 24.799C118.594 24.799 118.198 24.8949 117.848 25.0866C117.503 25.2741 117.228 25.5341 117.024 25.8665C116.824 26.1989 116.723 26.5781 116.723 27.0043V33H114.812ZM125.829 33.1982C124.862 33.1982 124.028 32.9915 123.33 32.5781C122.635 32.1605 122.098 31.5746 121.719 30.8203C121.344 30.0618 121.156 29.1733 121.156 28.1548C121.156 27.1491 121.344 26.2628 121.719 25.4957C122.098 24.7287 122.626 24.13 123.304 23.6996C123.986 23.2692 124.783 23.054 125.695 23.054C126.249 23.054 126.786 23.1456 127.305 23.3288C127.825 23.5121 128.292 23.7997 128.705 24.1918C129.119 24.5838 129.445 25.093 129.683 25.7195C129.922 26.3416 130.041 27.098 130.041 27.9886V28.6662H122.237V27.2344H128.168C128.168 26.7315 128.066 26.2862 127.862 25.8984C127.657 25.5064 127.369 25.1974 126.999 24.9716C126.632 24.7457 126.202 24.6328 125.707 24.6328C125.17 24.6328 124.702 24.7649 124.301 25.0291C123.905 25.2891 123.598 25.63 123.381 26.0518C123.168 26.4695 123.061 26.9233 123.061 27.4134V28.532C123.061 29.1882 123.176 29.7464 123.406 30.2067C123.641 30.6669 123.967 31.0185 124.384 31.2614C124.802 31.5 125.29 31.6193 125.848 31.6193C126.21 31.6193 126.54 31.5682 126.839 31.4659C127.137 31.3594 127.395 31.2017 127.612 30.9929C127.83 30.7841 127.996 30.5263 128.111 30.2195L129.92 30.5455C129.775 31.0781 129.515 31.5447 129.14 31.9453C128.769 32.3416 128.303 32.6506 127.74 32.8722C127.182 33.0895 126.545 33.1982 125.829 33.1982Z" fill="#FE0000"/>
</svg>
